# xmcd CD database file
#
# Track frame offsets:
#	150
#	23163
#	41606
#	58059
#	71511
#
# Disc length: 1155 seconds
#
# Revision: 0
# Processed by: cddbd v1.5.2PL0 Copyright (c) Steve Scherf et al.
# Submitted via: CDex 1.81
#
DISCID=3e048105
DTITLE=Billy Joe Hunt - Billy Joe Hunt
DYEAR=2015
DGENRE=Blues
TTITLE0=Dark Street Angel
TTITLE1=Springport
TTITLE2=Disappear
TTITLE3=Peanut Butter Blues
TTITLE4=Rochelle
EXTD=YEAR: 2015
EXTT0=
EXTT1=
EXTT2=
EXTT3=
EXTT4=
PLAYORDER=
